<svg xmlns="http://www.w3.org/2000/svg" width="1600" height="470" viewBox="0 0 1600 470"><rect width="1600" height="470" fill="#FCFBF9"/><rect x="120.3" y="107.0" width="8.3" height="262.0" rx="4.1" fill="#191C20"/><rect x="291.4" y="107.0" width="8.3" height="262.0" rx="4.1" fill="#191C20"/><rect x="135.7" y="116.5" width="148.7" height="30.7" rx="5.9" fill="none" stroke="#8FA9CE" stroke-width="4.1"/><rect x="135.7" y="169.6" width="148.7" height="30.7" rx="5.9" fill="none" stroke="#8FA9CE" stroke-width="4.1"/><rect x="135.7" y="222.7" width="148.7" height="30.7" rx="5.9" fill="#FCFBF9" stroke="#1F4E9C" stroke-width="3.5"/><path d="M 141.6 222.7 H 210.0 V 253.3 H 141.6 A 5.9 5.9 0 0 1 135.7 247.4 V 228.6 A 5.9 5.9 0 0 1 141.6 222.7 Z" fill="#1F4E9C"/><rect x="135.7" y="275.8" width="148.7" height="30.7" rx="5.9" fill="#1F4E9C"/><rect x="135.7" y="328.9" width="148.7" height="30.7" rx="5.9" fill="#1F4E9C"/><text x="380" y="258" font-family="Noto Serif CJK SC" font-size="128" fill="#191C20" font-weight="bold" text-anchor="start" letter-spacing="0">Field</text><text x="792.1600000000001" y="258" font-family="Noto Serif CJK SC" font-size="128" fill="#1F4E9C" font-weight="bold" text-anchor="start" letter-spacing="0">Onboarding</text><path d="M 380 326 H 1480" stroke="#DCD8D1" stroke-width="3"/><text x="384" y="384" font-family="Noto Sans CJK SC" font-size="34" fill="#71767C" font-weight="normal" text-anchor="start" letter-spacing="0">Locate the reader first. Then teach upward, one rung at a time.</text></svg>